<svg width="192" height="192" viewBox="0 0 178 168" fill="none" xmlns="http://www.w3.org/2000/svg">
<path d="M77.4 1.378C40.0944 6.174 10.12 32.2032 2.32479 66.56C-0.505607 78.9424 -0.227207 92.502 3.11359 104.797C11.1872 134.489 36.6144 157.989 68.3984 165.14C78.1424 167.32 91.1808 167.886 101.11 166.578C133.034 162.393 160.038 142.38 171.778 114.128C178.877 97.1236 179.573 76.4136 173.634 58.93C164.214 31.244 140.504 10.316 110.39 3.122C100.693 0.811201 87.2368 0.113601 77.4 1.378ZM95.96 5.52C121.619 7.6564 144.262 20.2568 158.646 40.3564C177.485 66.6036 177.578 101.004 158.878 127.382C152.893 135.797 145.376 143.078 137.07 148.484L133.544 150.752V114.389V77.9832L135.122 77.7216C138.323 77.1548 143.102 74.4952 145.747 71.792C157.765 59.584 151.176 40.0512 133.915 36.6504C126.538 35.168 118.696 37.4352 113.406 42.5364L111.597 44.2804L109.23 43.1468C102.688 40.0076 96.2384 38.6124 88.6752 38.6124C81.2976 38.5688 74.616 40.0512 68.584 42.9724L66.032 44.1932L63.48 41.9696C58.4224 37.6096 51.3696 35.4732 44.92 36.4324C26.8704 39.0048 19.2144 59.4532 31.696 71.7484C34.3408 74.3644 39.12 77.0676 42.0432 77.678C42.8784 77.8524 43.6672 78.2012 43.8064 78.4628C43.8992 78.768 43.9456 95.0308 43.8992 114.651L43.76 150.316L40.512 148.179C23.4832 136.887 11.048 118.967 6.91839 99.8268C2.88159 81.2968 6.12959 61.8512 15.92 45.5884C29.5616 22.96 54.1072 7.9616 81.344 5.5636C87.3296 5.0404 89.9744 5.0404 95.96 5.52ZM55.2208 42.2748C56.6592 42.9288 58.7008 44.1932 59.768 45.1088L61.7632 46.7656L58.8864 49.0764C52.9936 53.8724 47.3328 62.5488 45.384 69.7864C44.8736 71.7048 44.3632 73.318 44.2704 73.4052C43.7136 73.9284 38.5632 71.4432 36.336 69.5684C26.4992 61.0664 29.6544 46.0244 42.2288 41.708C45.8944 40.4436 51.7872 40.7052 55.2208 42.2748ZM136.792 42.4492C140.597 44.106 143.474 46.8092 145.33 50.428C146.629 53.0004 146.768 53.6544 146.768 57.404C146.768 61.2408 146.629 61.8076 145.237 64.4672C143.01 68.6964 137.813 72.7948 134.054 73.1872C133.034 73.318 132.894 73.0128 131.874 69.6556C130.528 65.034 127.373 58.8864 124.589 55.3984C123.382 53.916 120.923 51.4308 119.114 49.8176L115.819 46.8528L117.118 45.5448C120.366 42.362 124.821 40.7924 130.064 40.9668C133.08 41.0976 134.379 41.3592 136.792 42.4492ZM98.28 44.1496C110.437 47.0708 121.294 56.0088 125.656 66.6908C128.486 73.536 128.44 72.5768 128.44 114.912V153.629L124.403 155.417C115.216 159.384 105.611 161.739 95.264 162.567C81.2512 163.657 65.3824 160.867 53.04 155.068L48.864 153.106V114.302C48.864 77.5036 48.9104 75.3236 49.7456 72.228C53.9216 56.968 66.032 46.2424 82.4112 43.452C85.6128 42.8852 94.8 43.2776 98.28 44.1496Z" fill="#724288"/>
<path d="M70.0688 58.9736C68.0272 59.802 67.2848 65.7316 68.8624 68.304C70.3008 70.5276 72.7136 70.6584 74.3376 68.6092C75.7296 66.8216 75.7296 61.9384 74.3376 60.1508C73.4096 58.9736 71.4608 58.4504 70.0688 58.9736Z" fill="#724288"/>
<path d="M103.013 59.802C100.368 62.9412 101.76 70.048 105.008 70.048C106.771 70.048 107.56 69.612 108.349 68.1296C109.88 65.3828 108.952 59.7584 106.864 58.9736C105.333 58.4504 103.894 58.7556 103.013 59.802Z" fill="#724288"/>
<path d="M80.7408 74.844C70.9504 77.2856 62.8768 84.3924 59.536 93.592C58.4224 96.7748 58.2368 97.9956 58.1904 102.312C58.144 106.367 58.376 107.936 59.2112 110.596C63.6656 124.112 77.2608 132.614 91.9232 131.088C99.2544 130.303 104.637 127.818 110.158 122.63C116.098 117.049 119.16 110.204 119.16 102.53C119.16 94.8564 116.098 88.0984 110.158 82.474C104.08 76.6752 97.0736 73.9284 88.536 74.0156C85.752 74.0156 82.8752 74.3208 80.7408 74.844ZM96.9808 79.7708C101.157 81.2096 104.219 83.128 107.421 86.3108C111.922 90.8452 114.149 96.2516 114.149 102.53C114.149 109.332 111.875 114.433 106.632 119.316C102.642 123.109 99.8112 124.635 94.7536 125.856C90.5312 126.902 87.608 126.946 83.2928 126.074C74.0128 124.243 66.1248 117.136 63.7584 108.59C62.8304 105.19 62.8304 99.7396 63.712 96.426C66.1712 87.5316 74.4304 80.4248 84.36 78.5936C87.1904 78.0704 93.9184 78.7244 96.9808 79.7708Z" fill="#724288"/>
<path d="M77.4464 92.9816C75.9152 94.1588 75.2192 96.3388 75.776 98.0392C76.1936 99.26 84.5456 107.37 86.3088 108.242C89.3712 109.724 91.088 108.939 96.9344 103.315C99.3936 100.96 101.574 98.5624 101.76 98.0392C102.317 96.3388 101.621 94.1588 100.09 92.9816L98.6512 91.848H88.768H78.8848L77.4464 92.9816ZM92.8512 100.219L88.536 104.274L84.592 100.568C82.4112 98.5624 80.648 96.7312 80.648 96.5568C80.648 96.3388 84.36 96.208 88.8608 96.208H97.12L92.8512 100.219Z" fill="#724288"/>
<path d="M73.688 111.904C73.1776 112.384 72.76 113.038 72.76 113.386C72.76 115.218 77.7712 118.313 82.4576 119.316C85.5664 120.014 91.6448 120.014 94.8 119.316C96.0528 119.054 98.1408 118.357 99.44 117.746C103.755 115.697 105.379 113.386 103.57 111.73C102.549 110.77 101.342 110.858 99.8112 112.078C94.3824 116.308 84.2672 116.526 78.0496 112.558C75.312 110.77 74.9408 110.727 73.688 111.904Z" fill="#724288"/>
</svg>
