<?xml version="1.0" standalone="no"?>
<!DOCTYPE svg PUBLIC "-//W3C//DTD SVG 20010904//EN"
 "http://www.w3.org/TR/2001/REC-SVG-20010904/DTD/svg10.dtd">
<svg version="1.0" xmlns="http://www.w3.org/2000/svg"
 width="512.000000pt" height="512.000000pt" viewBox="0 0 512.000000 512.000000"
 preserveAspectRatio="xMidYMid meet">
<g transform="translate(0.000000,512.000000) scale(0.050000,-0.050000)"
fill="#ffffff" stroke="none">
<path d="M4100 10207 c-1413 -132 -2594 -795 -3344 -1877 -1166 -1681 -958
-4113 472 -5530 l191 -190 2 -220 c4 -635 46 -801 249 -987 136 -124 247 -163
462 -163 181 0 141 -14 780 267 l302 132 216 -49 c1087 -245 2286 -95 3260
408 2948 1523 3106 5777 280 7542 -785 490 -1927 756 -2870 667z m1040 -737
c2156 -333 3492 -2239 3077 -4388 -388 -2011 -2514 -3306 -4611 -2808 -448
106 -468 103 -1055 -157 -219 -97 -401 -174 -403 -171 -3 2 -14 195 -24 428
-22 530 -28 545 -341 860 -1845 1853 -1243 4994 1145 5976 674 277 1484 372
2212 260z"/>
<path d="M6750 7056 c-22 -13 -166 -119 -320 -236 -154 -116 -449 -340 -655
-497 -398 -303 -482 -351 -570 -331 -30 7 -304 200 -608 429 -663 499 -744
534 -1030 449 -192 -57 -259 -130 -573 -625 -722 -1137 -1008 -1599 -1019
-1643 -32 -120 100 -253 226 -229 28 6 361 249 740 541 379 292 711 539 739
550 104 40 169 2 694 -407 284 -221 566 -426 626 -454 229 -109 566 -37 716
153 83 104 1264 1980 1297 2059 65 153 -120 322 -263 241z"/>
</g>
</svg>
